<svg viewBox="0 0 200 200" fill="none" xmlns="http://www.w3.org/2000/svg">
  <!-- Caveira principal -->
  <path d="M100 30 C70 30, 50 50, 50 80 C50 95, 55 108, 60 115 L60 140 L80 140 L80 130 L90 130 L90 140 L110 140 L110 130 L120 130 L120 140 L140 140 L140 115 C145 108, 150 95, 150 80 C150 50, 130 30, 100 30 Z" stroke="#FF0000" stroke-width="3" fill="none" stroke-linecap="round" stroke-linejoin="round"/>
  
  <!-- Olhos -->
  <circle cx="80" cy="75" r="10" stroke="#FF0000" stroke-width="3" fill="none"/>
  <circle cx="120" cy="75" r="10" stroke="#FF0000" stroke-width="3" fill="none"/>
  
  <!-- Nariz triangular -->
  <path d="M95 90 L100 100 L105 90 Z" stroke="#FF0000" stroke-width="3" fill="none" stroke-linejoin="round"/>
  
  <!-- Dentes -->
  <line x1="75" y1="110" x2="75" y2="120" stroke="#FF0000" stroke-width="2"/>
  <line x1="85" y1="110" x2="85" y2="120" stroke="#FF0000" stroke-width="2"/>
  <line x1="95" y1="110" x2="95" y2="120" stroke="#FF0000" stroke-width="2"/>
  <line x1="105" y1="110" x2="105" y2="120" stroke="#FF0000" stroke-width="2"/>
  <line x1="115" y1="110" x2="115" y2="120" stroke="#FF0000" stroke-width="2"/>
  <line x1="125" y1="110" x2="125" y2="120" stroke="#FF0000" stroke-width="2"/>
  
  <!-- Linha da mandíbula -->
  <path d="M70 110 L130 110" stroke="#FF0000" stroke-width="3" stroke-linecap="round"/>
  
  <!-- Decorações laterais - espirais -->
  <path d="M40 70 Q35 75, 35 80 Q35 85, 40 90" stroke="#FF0000" stroke-width="2" fill="none"/>
  <path d="M160 70 Q165 75, 165 80 Q165 85, 160 90" stroke="#FF0000" stroke-width="2" fill="none"/>
  
  <!-- Flores decorativas -->
  <circle cx="30" cy="80" r="5" stroke="#FF0000" stroke-width="2" fill="none"/>
  <circle cx="170" cy="80" r="5" stroke="#FF0000" stroke-width="2" fill="none"/>
  
  <!-- Raios do sol/aura -->
  <line x1="100" y1="15" x2="100" y2="25" stroke="#FF0000" stroke-width="2"/>
  <line x1="130" y1="20" x2="125" y2="28" stroke="#FF0000" stroke-width="2"/>
  <line x1="70" y1="20" x2="75" y2="28" stroke="#FF0000" stroke-width="2"/>
  <line x1="155" y1="35" x2="148" y2="40" stroke="#FF0000" stroke-width="2"/>
  <line x1="45" y1="35" x2="52" y2="40" stroke="#FF0000" stroke-width="2"/>
  
  <!-- Banner inferior -->
  <path d="M60 160 L140 160 L135 170 L100 165 L65 170 Z" stroke="#FF0000" stroke-width="2" fill="none"/>
</svg>
